PathFileType	4	(X/Y/Z)	E:\Marcel_BSc\Ayumi_22_01_2025\22-01-2025\conv_dl_1.trc
DataRate	CameraRate	NumFrames	NumMarkers	Units	OrigDataRate	OrigDataStartFrame	OrigNumFrames
200.0	200.0	5	47	mm	200.0	1529	2445	
Frame#	Time	FHD			LBHD			RBHD			RBAR			LBAR			RSACR			LSACR			USACR			C7			CLAV			T10			RSHO			LSHO			LTHI1			LTHI3			LTHI2			LTIB1			LTIB2			LTIB3			LMMAL			LLMAL			LHEE			LMT1			LMT5			LMT3			RTHI1			RTHI2			RTHI3			RTIB1			RTIB3			RTIB2			RLMAL			RMMAL			RHEE			RMT5			RMT1			RMT3			LDUPA			LMUPA			LUUPA			LRAD			RUL			RRAD			RUFIN			RMUPA			RDUPA			RUUPA			
		X1	Y1	Z1	X2	Y2	Z2	X3	Y3	Z3	X4	Y4	Z4	X5	Y5	Z5	X6	Y6	Z6	X7	Y7	Z7	X8	Y8	Z8	X9	Y9	Z9	X10	Y10	Z10	X11	Y11	Z11	X12	Y12	Z12	X13	Y13	Z13	X14	Y14	Z14	X15	Y15	Z15	X16	Y16	Z16	X17	Y17	Z17	X18	Y18	Z18	X19	Y19	Z19	X20	Y20	Z20	X21	Y21	Z21	X22	Y22	Z22	X23	Y23	Z23	X24	Y24	Z24	X25	Y25	Z25	X26	Y26	Z26	X27	Y27	Z27	X28	Y28	Z28	X29	Y29	Z29	X30	Y30	Z30	X31	Y31	Z31	X32	Y32	Z32	X33	Y33	Z33	X34	Y34	Z34	X35	Y35	Z35	X36	Y36	Z36	X37	Y37	Z37	X38	Y38	Z38	X39	Y39	Z39	X40	Y40	Z40	X41	Y41	Z41	X42	Y42	Z42	X43	Y43	Z43	X44	Y44	Z44	X45	Y45	Z45	X46	Y46	Z46	X47	Y47	Z47	
1529	7.635	-103.42574	1401.6622	-603.33173	-79.392258	1401.6118	-543.55902	-54.495316	1399.479	-674.10181	183.87743	624.07806	-1717.8206	202.29308	634.1748	504.75873	419.10336	955.34241	-651.41815	414.57574	958.82581	-578.8324	407.18643	965.32678	-615.90765	170.35078	1325.7474	-600.36151	77.988457	1195.163	-605.4317	325.77484	1099.8746	-612.60712	76.517502	1215.5991	-760.81793	111.25696	1223.1426	-434.77411	290.79608	592.26257	-413.20874	281.84863	527.94995	-429.34363	237.85861	551.44946	-415.92267	231.44746	234.91603	-424.16409	281.85074	236.33228	-426.41373	257.2005	175.94205	-434.33856	260.73959	76.815155	-525.27411	279.27194	70.045982	-449.12823	319.83026	35.934265	-495.92758	122.8634	44.223179	-488.16418	147.54732	26.40547	-411.79514	123.73527	42.01088	-454.34305	299.72266	590.11438	-809.92041	246.22441	552.78223	-809.94781	289.27225	527.79803	-795.23975	230.78389	276.59119	-813.11621	255.72755	216.50841	-803.56238	281.30939	276.26929	-810.78925	274.69043	74.216835	-783.37512	242.09171	82.073616	-711.7746	317.02063	31.893988	-737.08521	139.05826	31.316414	-811.42126	116.03387	41.577839	-748.28839	120.94321	39.649204	-778.85461	235.66995	1034.6976	-375.12338	185.85027	1031.8633	-380.39218	181.96472	1093.6941	-383.34161	222.14691	706.41089	-336.79333	145.29132	705.56433	-890.47119	147.25797	698.71735	-827.69061	147.81984	622.61682	-829.49847	133.74849	1109.049	-835.19769	139.8512	1048.6653	-850.63647	181.75436	1115.775	-844.25531
1530	7.64	-104.81602	1398.4386	-602.88336	-80.561043	1398.5122	-543.14203	-55.925999	1396.6234	-673.81512	184.22	622.46698	-1717.568	202.88759	632.85217	504.77814	419.80783	954.94031	-651.1781	415.49341	958.40759	-578.40961	407.86835	964.9408	-615.73914	169.5697	1324.6042	-600.23456	77.737968	1193.5698	-605.31476	325.88437	1099.2969	-612.52979	76.095261	1213.9794	-760.73108	110.88534	1221.6912	-434.73422	291.50748	591.89313	-412.77963	282.11478	527.82483	-428.97189	238.12968	551.3703	-415.55032	231.47903	234.84436	-423.96146	281.84799	236.23505	-426.19305	257.25879	175.80182	-434.13739	260.71829	76.842506	-525.2323	279.28494	70.00589	-449.06168	319.85809	35.955544	-495.89401	122.87274	44.234749	-488.14688	147.42303	26.651155	-411.54797	123.73623	42.106628	-454.24081	300.2016	589.82214	-809.87427	246.50731	552.7326	-809.87207	289.51788	527.59198	-795.12097	230.57867	276.83167	-813.0799	255.70679	216.45544	-803.54358	281.2807	276.23996	-810.80859	274.68863	74.22644	-783.40387	242.09348	82.061096	-711.75519	317.00497	31.935406	-737.0545	139.05606	31.321339	-811.42456	116.0545	41.579033	-748.28735	120.95673	39.643719	-778.84863	235.65662	1033.5216	-375.11816	185.87065	1030.598	-380.34396	181.88957	1092.4766	-383.28558	222.47043	705.21783	-336.77261	145.40872	704.22528	-890.47107	147.46567	697.3772	-827.63324	148.00961	621.27814	-829.48108	133.48941	1107.7092	-835.07343	139.70572	1047.3136	-850.56738	181.5338	1114.4346	-844.22015
1531	7.645	-106.18489	1395.2859	-602.38171	-81.87265	1395.5406	-542.81592	-57.454758	1394.0507	-672.82782	184.24612	621.11865	-1717.5645	203.46953	631.55011	504.76968	420.39517	954.64429	-651.05316	416.03088	958.09698	-578.18048	408.48895	964.52173	-615.56628	168.77325	1323.3463	-600.18671	77.491753	1191.9723	-605.24921	325.9856	1098.6875	-612.43921	75.702751	1212.4626	-760.52844	110.51746	1220.2191	-434.6601	291.98828	591.62811	-412.34756	282.36609	527.65857	-428.60159	238.47711	551.29718	-415.08313	230.91164	234.94217	-424.26184	281.89041	236.14691	-425.97879	257.25278	175.75497	-433.96567	260.71359	76.906441	-525.14801	279.27713	69.960838	-449.00241	319.86588	35.927219	-495.8465	122.924	44.43206	-487.98962	147.45125	26.649597	-411.54007	123.75852	41.989079	-454.2963	300.66278	589.55688	-809.80945	246.95354	552.5694	-809.87384	289.80624	527.35944	-794.9873	230.59782	276.7435	-813.02216	255.71147	216.40283	-803.52539	281.27988	276.19202	-810.81342	274.65851	74.226883	-783.39844	242.10239	82.046532	-711.75134	317.01544	31.958858	-737.04938	139.0625	31.3332	-811.41791	116.06677	41.572483	-748.27863	120.95027	39.657993	-778.85193	235.63579	1032.3151	-375.10541	185.80078	1029.3905	-380.31061	181.78265	1091.2407	-383.24615	222.73822	704.00531	-336.76071	145.56267	702.90222	-890.46277	147.71794	696.07812	-827.5719	148.43987	620.10504	-829.34491	133.24203	1106.3413	-834.94342	139.56844	1045.9163	-850.53516	181.29523	1113.1255	-844.16681
1532	7.65	-107.48747	1392.132	-601.94989	-83.066093	1392.5818	-542.43707	-58.770367	1391.0735	-673.09387	184.43323	619.4762	-1717.7222	204.06059	630.26807	504.79443	420.58972	954.64032	-651.10583	416.52762	957.63416	-578.22546	409.11215	964.11438	-615.34985	168.00259	1322.1525	-600.12885	77.238693	1190.3883	-605.1571	326.12692	1098.0741	-612.36823	75.31601	1210.9236	-760.34796	110.1645	1218.7184	-434.59378	292.10809	591.63837	-412.01904	282.64359	527.45941	-428.17023	238.78322	551.27344	-414.68079	230.88762	234.89796	-423.99261	281.92346	236.0497	-425.75491	257.32785	175.66389	-433.81213	260.69104	76.926353	-525.09698	279.28845	69.903358	-448.94498	319.88824	35.982388	-495.81082	123.09078	44.5914	-487.79578	147.44823	26.638557	-411.53046	123.58905	41.847668	-454.47101	301.09848	589.4364	-809.72565	247.23402	552.61047	-809.76392	290.11719	527.14691	-794.88776	230.59827	276.6821	-813.00281	255.70345	216.39445	-803.51471	281.30219	276.1561	-810.81989	274.64972	74.205597	-783.41614	242.08827	82.050194	-711.7467	317.01645	31.945045	-737.05536	139.07193	31.320873	-811.41174	116.07026	41.568077	-748.27661	120.95852	39.662422	-778.84949	235.56288	1031.1423	-375.1196	185.75818	1028.1519	-380.26993	181.66591	1089.9277	-383.23907	223.0007	702.79022	-336.74344	145.76315	701.5069	-890.44684	147.82303	694.73224	-827.54877	148.60512	618.68848	-829.37762	132.98863	1104.9607	-834.84894	139.34364	1044.6498	-850.45239	181.01604	1111.8417	-844.15948
1533	7.655	-108.8311	1389.0746	-601.43762	-84.212173	1389.6388	-542.0976	-60.141109	1388.265	-672.78961	184.61006	618.08344	-1717.4686	204.6357	628.93073	504.82477	421.60104	953.99719	-650.7525	416.91513	957.4458	-577.96924	409.74066	963.76019	-615.11865	167.18579	1320.9088	-600.0484	76.95903	1188.7944	-605.11682	326.23529	1097.514	-612.26471	74.899094	1209.3673	-760.24207	109.75561	1217.2812	-434.56329	292.58633	591.4505	-411.59378	282.95615	527.30548	-427.73111	239.10725	551.21814	-414.30161	231.3158	234.71414	-423.42093	281.97537	235.94484	-425.54391	257.33856	175.60242	-433.63614	260.69138	76.934219	-525.06879	279.31662	69.853851	-448.8912	319.91147	35.972206	-495.81714	123.00555	44.446087	-487.92654	147.42909	26.635109	-411.51254	123.7066	41.671886	-454.54016	301.63065	589.08716	-809.66632	247.61244	552.49512	-809.70471	290.42175	526.97034	-794.7923	230.73009	276.45029	-812.99847	255.69444	216.37413	-803.4895	281.30908	276.12946	-810.81946	274.62982	74.20137	-783.4306	242.08791	82.058098	-711.74103	317.02435	31.916571	-737.06305	139.06129	31.332653	-811.40277	116.08036	41.567722	-748.27075	120.96176	39.671703	-778.86279	235.526	1029.9833	-375.09506	185.73598	1026.8761	-380.23785	181.56427	1088.6796	-383.2023	223.30116	701.59821	-336.77277	145.88873	700.15668	-890.44659	148.04395	693.42889	-827.54523	148.95131	617.27588	-829.37299	132.7072	1103.6238	-834.78351	139.15549	1043.3433	-850.38263	180.634	1110.7009	-844.10229
